<svg xmlns="http://www.w3.org/2000/svg" viewBox="0 0 54 54"><defs><style>.cls-1{fill:#424242;}</style></defs><title>Ресурс 18</title><g id="Слой_2" data-name="Слой 2"><g id="icons"><path class="cls-1" d="M54,3a3,3,0,0,0-3-3H3A3,3,0,0,0,0,3V4A3,3,0,0,0,.78,6,3,3,0,0,0,0,8V24a3,3,0,0,0,.78,2A3,3,0,0,0,0,28v1a3,3,0,0,0,.78,2A3,3,0,0,0,0,33V51a3,3,0,0,0,3,3H6a1,1,0,0,0,1-1V43c0-2.76,1.79-5,4-5s4,2.24,4,5V53a1,1,0,0,0,1,1h6a1,1,0,0,0,1-1V43c0-2.76,1.79-5,4-5s4,2.24,4,5V53a1,1,0,0,0,1,1h6a1,1,0,0,0,1-1V43c0-2.76,1.79-5,4-5s4,2.24,4,5V53a1,1,0,0,0,1,1h3a3,3,0,0,0,3-3V33a3,3,0,0,0-.78-2A3,3,0,0,0,54,29V28a3,3,0,0,0-.78-2A3,3,0,0,0,54,24V8a3,3,0,0,0-.78-2A3,3,0,0,0,54,4ZM2,3A1,1,0,0,1,3,2H51a1,1,0,0,1,1,1V4a1,1,0,0,1-1,1H3A1,1,0,0,1,2,4ZM52,8V24a1,1,0,0,1-1,1H49V18c0-3.86-2.69-7-6-7s-6,3.14-6,7v7H33V18c0-3.86-2.69-7-6-7s-6,3.14-6,7v7H17V18c0-3.86-2.69-7-6-7s-6,3.14-6,7v7H3a1,1,0,0,1-1-1V8A1,1,0,0,1,3,7H51A1,1,0,0,1,52,8Zm0,20v1a1,1,0,0,1-1,1H3a1,1,0,0,1-1-1V28a1,1,0,0,1,1-1H51A1,1,0,0,1,52,28ZM15,25H7V18c0-2.76,1.79-5,4-5s4,2.24,4,5Zm16,0H23V18c0-2.76,1.79-5,4-5s4,2.24,4,5Zm16,0H39V18c0-2.76,1.79-5,4-5s4,2.24,4,5Zm5,26a1,1,0,0,1-1,1H49V43c0-3.86-2.69-7-6-7s-6,3.14-6,7v9H33V43c0-3.86-2.69-7-6-7s-6,3.14-6,7v9H17V43c0-3.86-2.69-7-6-7s-6,3.14-6,7v9H3a1,1,0,0,1-1-1V33a1,1,0,0,1,1-1H51a1,1,0,0,1,1,1Z"/></g></g></svg>