<svg xmlns="http://www.w3.org/2000/svg" viewBox="0 0 54.49 54"><defs><style>.cls-1{fill:#424242;}</style></defs><title>Ресурс 61</title><g id="Слой_2" data-name="Слой 2"><g id="icons"><path class="cls-1" d="M51.36,26.73a3.34,3.34,0,0,0-.23-1L48,15.55C46.81,12.7,43.69,11,39.65,11H26V5a5,5,0,0,0-5-5H5A5,5,0,0,0,0,5V20a5,5,0,0,0,5,5h6.58l-.15.38a4.3,4.3,0,0,0-.3,1,5.85,5.85,0,0,0-4.2,6.16l.88,10.76a7,7,0,0,0,2,3.7,1.1,1.1,0,0,0,.23.26v4A3,3,0,0,0,13,54h4a3,3,0,0,0,3-2.79V47H42v4.21A3,3,0,0,0,45,54h4a3,3,0,0,0,3-2.79V46.92s0,0,0-.05a6.71,6.71,0,0,0,1.52-3.6l.93-10.77A5.85,5.85,0,0,0,51.36,26.73ZM2,20V5A3,3,0,0,1,5,2H21a3,3,0,0,1,3,3V20a3,3,0,0,1-3,3H5A3,3,0,0,1,2,20ZM52.48,32.33,51.55,43.1a4.85,4.85,0,0,1-1.21,2.66,1.11,1.11,0,0,0-.22.45,1.34,1.34,0,0,0-.12.53v4.47c0,.38-.52.79-1,.79H45c-.48,0-1-.41-1-.79V46a1,1,0,0,0-1-1H19a1,1,0,0,0-1,1v5.21c0,.38-.52.79-1,.79H13c-.48,0-1-.41-1-.79V46.74a1.15,1.15,0,0,0-.66-1,5.7,5.7,0,0,1-1.53-2.63L8.92,32.35a3.88,3.88,0,0,1,3.33-4.2A1,1,0,0,0,13.1,27a1.6,1.6,0,0,1,.18-.88L13.72,25H21a5,5,0,0,0,5-5V13H39.65c1.2,0,5.22.24,6.47,3.23l3.13,10.19a1.67,1.67,0,0,1,.1.84A1,1,0,0,0,50,28.32,3.85,3.85,0,0,1,52.48,32.33Z"/><path class="cls-1" d="M17,28H45a1,1,0,0,0,0-2H17a1,1,0,0,0,0,2Z"/><path class="cls-1" d="M46.35,31.43a4.13,4.13,0,1,0,4.13,4.13A4.14,4.14,0,0,0,46.35,31.43Zm0,6.26a2.13,2.13,0,1,1,2.13-2.13A2.13,2.13,0,0,1,46.35,37.69Z"/><path class="cls-1" d="M15.05,31.43a4.13,4.13,0,1,0,4.13,4.13A4.14,4.14,0,0,0,15.05,31.43Zm0,6.26a2.13,2.13,0,1,1,2.13-2.13A2.13,2.13,0,0,1,15.05,37.69Z"/><path class="cls-1" d="M36,32H26a3.23,3.23,0,0,0-3.24,4.15l.54,2.18A5,5,0,0,0,28,42h6a5,5,0,0,0,4.7-3.67l.54-2.18A3.23,3.23,0,0,0,36,32Zm1.3,3.67-.54,2.18A3.09,3.09,0,0,1,34,40H28a3.09,3.09,0,0,1-2.76-2.15l-.54-2.18A1.24,1.24,0,0,1,26,34H36a1.24,1.24,0,0,1,1.3,1.67Z"/><path class="cls-1" d="M15.11,6H9A1,1,0,0,0,8,7V19a1,1,0,0,0,2,0V16h5.11c1.72,0,4.64-1.05,4.64-5A4.83,4.83,0,0,0,15.11,6Zm0,8H10V8h5.05a2.81,2.81,0,0,1,2.7,3C17.75,13.78,15.73,14,15.11,14Z"/></g></g></svg>