<svg xmlns="http://www.w3.org/2000/svg" viewBox="0 0 49.68 53.19"><defs><style>.cls-1{fill:#424242;}</style></defs><title>Ресурс 29</title><g id="Слой_2" data-name="Слой 2"><g id="icons"><path class="cls-1" d="M46.58,53.19a3.27,3.27,0,0,0,2.4-.72,2.48,2.48,0,0,0,.7-1.87c0-1-.23-1.63-1.12-4.55s-9-7.16-15-9.56V34.14a.91.91,0,0,0-.3-.82.87.87,0,0,0-.85-.11l-.95.37c-.14-.88-.25-1.84-.29-2.54A10.29,10.29,0,0,0,33,28.72q.3-.48.6-.93a19.66,19.66,0,0,0,1.82-3.36,2.92,2.92,0,0,0,1.36-1.27C38,21,38.63,17.6,38.15,16.24A1.91,1.91,0,0,0,37,15.07c0-6.71-2.6-11.75-7.13-13.58-5.65-3.12-9.5-.49-10.41.26-6.69,2-6.88,8.73-6.74,13.27a1.92,1.92,0,0,0-1.23,1.21c-.48,1.36.19,4.78,1.35,6.92a2.9,2.9,0,0,0,1.48,1.31,18.49,18.49,0,0,0,1.8,3.33l.56.89a9.39,9.39,0,0,0,2,2.44c-.1.64-.31,1.6-.52,2.47l-1-.38a1.31,1.31,0,0,0-1.06.11,1.16,1.16,0,0,0-.56.82v3l-.23-.93C11.93,37.55,2,42.23,1,46.09c-.72,2.77-1,4.12-1,4.18a.66.66,0,0,0,0,.2,2.56,2.56,0,0,0,.72,1.9c.84.83,2.11.81,3.44.78Zm-29-17.26c0,.28.48.52.8.59a1.09,1.09,0,0,0,.31,0,1,1,0,0,0,.77-.34l5,1.87a1,1,0,0,0,.71,0l5-1.89a.76.76,0,0,0,.79.24.73.73,0,0,0,.56-.72v6.15L25,40.18a.39.39,0,0,0-.18,0,1.32,1.32,0,0,0-.34,0l-6.86,1.68ZM20.24,3.61a1.18,1.18,0,0,0,.42-.24c.13-.12,3.25-2.93,8.33-.1l.11,0C32.66,4.73,34.8,8.71,35,14.11,28.25,13.73,22.44,9,21.83,8A1,1,0,0,0,21,7.16a1,1,0,0,0-1.12.61,9.86,9.86,0,0,1-5.17,5.07C14.87,8.6,15.86,4.83,20.24,3.61Zm.09,26.23a7,7,0,0,1-1.92-2.2c-.19-.32-.38-.62-.57-.92A15.76,15.76,0,0,1,16,23.27a1.11,1.11,0,0,0-.91-.66.84.84,0,0,1-.5-.42,11,11,0,0,1-1.26-5.26.76.76,0,0,1,.38-.05,1.05,1.05,0,0,0,.74-.3,1,1,0,0,0,.29-.74c0-.3,0-.61,0-.91A11.09,11.09,0,0,0,21,10a23.75,23.75,0,0,0,14.07,6.1,1,1,0,0,0,.23.45,1,1,0,0,0,.7.31c.19,0,.28,0,.28,0A10.58,10.58,0,0,1,35,22.2a1,1,0,0,1-.5.44,1,1,0,0,0-.8.64,17.19,17.19,0,0,1-1.81,3.43c-.21.31-.41.64-.62,1a7.47,7.47,0,0,1-1.73,2.12,1,1,0,0,0-.39.79,25.22,25.22,0,0,0,.43,3.7l-4.77,1.79-4.76-1.79a22.12,22.12,0,0,0,.67-3.6A1,1,0,0,0,20.33,29.84ZM47.59,51a4.25,4.25,0,0,1-1.79.16H25.58v-6a1,1,0,0,0-2,0v6H4.85l-.72,0a4.27,4.27,0,0,1-2-.21A.65.65,0,0,1,2,50.57c.08-.37.25-1.7.84-4s7.72-6.33,12.72-8.38v4.92a1.17,1.17,0,0,0,.52.79,1.11,1.11,0,0,0,.92.18l7.79-1.93,7.78,1.93a.72.72,0,0,0,.25,0,.68.68,0,0,0,.49-.21.91.91,0,0,0,.25-.79V38.68c8,3.27,12.62,6.47,13.06,8,.86,2.81,1,3.22,1,4C47.61,50.88,47.62,51,47.59,51Z"/><path class="cls-1" d="M36.58,47.19h-4a1,1,0,0,0,0,2h4a1,1,0,0,0,0-2Z"/></g></g></svg>