<svg xmlns="http://www.w3.org/2000/svg" viewBox="0 0 54 54"><defs><style>.cls-1{fill:#424242;}</style></defs><title>Ресурс 69</title><g id="Слой_2" data-name="Слой 2"><g id="icons"><path class="cls-1" d="M50.48,41.33,54,28.26A1,1,0,1,0,52,27.74L48.55,40.81A1.78,1.78,0,0,1,47,42H40a1,1,0,0,1,0-2h7a1,1,0,0,0,0-2H40a3,3,0,0,0-1,5.83A.53.53,0,0,0,39,44v9a1,1,0,0,0,2,0V44h6a1,1,0,0,0,.09.41l4,9A1,1,0,0,0,52,54a1,1,0,0,0,.41-.09,1,1,0,0,0,.5-1.32l-4-9a.6.6,0,0,0-.09-.13A3.69,3.69,0,0,0,50.48,41.33Z"/><path class="cls-1" d="M14,38H7a1,1,0,0,0,0,2h7a1,1,0,0,1,0,2H7a1.78,1.78,0,0,1-1.55-1.19L2,27.74A1,1,0,0,0,.74,27,1,1,0,0,0,0,28.26L3.52,41.33a3.69,3.69,0,0,0,1.66,2.13.6.6,0,0,0-.09.13l-4,9a1,1,0,0,0,.5,1.32A1,1,0,0,0,2,54a1,1,0,0,0,.91-.59l4-9A1.91,1.91,0,0,0,7,44h6v9a1,1,0,0,0,2,0V43.82A3,3,0,0,0,14,38Z"/><path class="cls-1" d="M35,52c-2.37,0-6-4.48-6-10,0-4.77,4.27-9,5.38-10H39a1,1,0,0,0,0-2H15a1,1,0,0,0,0,2h4.62C20.73,33,25,37.22,25,42c0,5.52-3.63,10-6,10a1,1,0,0,0,0,2c3.6,0,8-5.54,8-12,0-4.24-2.68-7.93-4.56-10h9.12C29.68,34.07,27,37.76,27,42c0,6.46,4.4,12,8,12a1,1,0,0,0,0-2Z"/><path class="cls-1" d="M5,18H9a4,4,0,0,0,3-1.36A4,4,0,0,0,15,18h4a4,4,0,0,0,3-1.36A4,4,0,0,0,25,18h1v9a1,1,0,0,0,2,0V18h1a4,4,0,0,0,3-1.36A4,4,0,0,0,35,18h4a4,4,0,0,0,3-1.36A4,4,0,0,0,45,18h4a4,4,0,0,0,4-4,1,1,0,0,0-.6-.92L28,2.5V1a1,1,0,0,0-2,0V2.5L1.6,13.08A1,1,0,0,0,1,14,4,4,0,0,0,5,18ZM27,4.25,50.9,14.61A2,2,0,0,1,49,16H45a2,2,0,0,1-2-2,1,1,0,0,0-2,0,2,2,0,0,1-2,2H35a2,2,0,0,1-2-2,1,1,0,0,0-2,0,2,2,0,0,1-2,2H25a2,2,0,0,1-2-2,1,1,0,0,0-2,0,2,2,0,0,1-2,2H15a2,2,0,0,1-2-2,1,1,0,0,0-2,0,2,2,0,0,1-2,2H5a2,2,0,0,1-1.9-1.39Z"/></g></g></svg>