<svg xmlns="http://www.w3.org/2000/svg" viewBox="0 0 54 51.97"><defs><style>.cls-1{fill:#424242;}</style></defs><title>Ресурс 59</title><g id="Слой_2" data-name="Слой 2"><g id="icons"><path class="cls-1" d="M17.63,26.23a1,1,0,0,0,.66-.24,1,1,0,0,0,.1-1.41,11.46,11.46,0,0,1-2.82-7.53,11.3,11.3,0,0,1,2.3-6.88,1,1,0,0,0-.19-1.4,1,1,0,0,0-1.4.19,13.45,13.45,0,0,0,.6,16.93A1,1,0,0,0,17.63,26.23Z"/><path class="cls-1" d="M36.24,8.67a1,1,0,0,0-.18,1.41,11.31,11.31,0,0,1,2.37,7,11.45,11.45,0,0,1-2.81,7.52,1,1,0,0,0,.75,1.66,1,1,0,0,0,.75-.34,13.45,13.45,0,0,0,.52-17A1,1,0,0,0,36.24,8.67Z"/><path class="cls-1" d="M8.78,17.05A18,18,0,0,1,12.63,5.86a1,1,0,0,0-1.58-1.23A20,20,0,0,0,6.78,17.05a20.25,20.25,0,0,0,4.78,13.06,1,1,0,0,0,.77.36,1,1,0,0,0,.64-.24,1,1,0,0,0,.12-1.41A18.22,18.22,0,0,1,8.78,17.05Z"/><path class="cls-1" d="M42.94,4.62a1,1,0,1,0-1.57,1.23,18.22,18.22,0,0,1-.54,23.06,1,1,0,0,0,.11,1.41,1,1,0,0,0,.65.25,1,1,0,0,0,.76-.35,20.24,20.24,0,0,0,4.87-13.17A20,20,0,0,0,42.94,4.62Z"/><path class="cls-1" d="M2,17.05A24.74,24.74,0,0,1,7.33,1.62,1,1,0,1,0,5.76.38a27,27,0,0,0,.61,34.09,1,1,0,0,0,.76.35,1,1,0,0,0,.65-.23,1,1,0,0,0,.12-1.41A25,25,0,0,1,2,17.05Z"/><path class="cls-1" d="M48.27.43A1,1,0,0,0,46.7,1.66,24.72,24.72,0,0,1,52,17.05a25,25,0,0,1-5.9,16.13,1,1,0,0,0,.77,1.65,1,1,0,0,0,.76-.36A27,27,0,0,0,54,17.05,26.68,26.68,0,0,0,48.27.43Z"/><path class="cls-1" d="M30.34,22.8a6.65,6.65,0,1,0-6.68,0L14.74,50.66a1,1,0,0,0,.65,1.26,1.12,1.12,0,0,0,.31,0,1,1,0,0,0,.95-.7l1.66-5.19H35.69l1.66,5.19a1,1,0,0,0,.95.7,1.12,1.12,0,0,0,.31,0,1,1,0,0,0,.65-1.26ZM27,12.4a4.66,4.66,0,1,1-4.65,4.65A4.65,4.65,0,0,1,27,12.4Zm0,11.31a7.22,7.22,0,0,0,1.48-.17l3.37,10.54h-9.7l3.37-10.54A7.22,7.22,0,0,0,27,23.71ZM19,44.08l2.56-8h11l2.56,8Z"/></g></g></svg>