<svg xmlns="http://www.w3.org/2000/svg" viewBox="0 0 54 50.48"><defs><style>.cls-1{fill:#424242;}</style></defs><title>Ресурс 92</title><g id="Слой_2" data-name="Слой 2"><g id="icons"><path class="cls-1" d="M14.88,48.53c-.4-.13-2.44-1.2-2.44-3.08a4.1,4.1,0,0,1,1.2-2.81,7.39,7.39,0,0,0,1.71-3.34,5,5,0,0,0-3.43-5.47,1,1,0,0,0-1.25.66,1,1,0,0,0,.66,1.25c.72.22,2.39,1.49,2.06,3.17a5.53,5.53,0,0,1-1.32,2.49,6,6,0,0,0-1.63,4.05c0,2.82,2.57,4.57,3.81,5a.87.87,0,0,0,.31,0,1,1,0,0,0,.32-1.95Z"/><path class="cls-1" d="M23.88,48.53c-.4-.13-2.44-1.2-2.44-3.08a4.1,4.1,0,0,1,1.2-2.81,7.39,7.39,0,0,0,1.71-3.34,5,5,0,0,0-3.43-5.47,1,1,0,0,0-1.25.66,1,1,0,0,0,.66,1.25c.72.22,2.39,1.49,2.06,3.17a5.53,5.53,0,0,1-1.32,2.49,6,6,0,0,0-1.63,4.05c0,2.82,2.57,4.57,3.81,5a.87.87,0,0,0,.31,0,1,1,0,0,0,.32-1.95Z"/><path class="cls-1" d="M32.88,48.53c-.4-.13-2.44-1.2-2.44-3.08a4.1,4.1,0,0,1,1.2-2.81,7.39,7.39,0,0,0,1.71-3.34,5,5,0,0,0-3.43-5.47,1,1,0,0,0-1.25.66,1,1,0,0,0,.66,1.25c.72.22,2.39,1.49,2.06,3.17a5.53,5.53,0,0,1-1.32,2.49,6,6,0,0,0-1.63,4.05c0,2.82,2.57,4.57,3.81,5a.87.87,0,0,0,.31,0,1,1,0,0,0,.32-1.95Z"/><path class="cls-1" d="M41.88,48.53c-.4-.13-2.44-1.2-2.44-3.08a4.1,4.1,0,0,1,1.2-2.81,7.39,7.39,0,0,0,1.71-3.34,5,5,0,0,0-3.43-5.47,1,1,0,0,0-1.25.66,1,1,0,0,0,.66,1.25c.72.22,2.39,1.49,2.06,3.17a5.53,5.53,0,0,1-1.32,2.49,6,6,0,0,0-1.63,4.05c0,2.82,2.57,4.57,3.81,5a.87.87,0,0,0,.31,0,1,1,0,0,0,.32-1.95Z"/><path class="cls-1" d="M49,0H5A5,5,0,0,0,0,5V23a5,5,0,0,0,5,5H49a5,5,0,0,0,5-5V5A5,5,0,0,0,49,0ZM5,2H49a3,3,0,0,1,3,3V18H2V5A3,3,0,0,1,5,2ZM49,26H5a3,3,0,0,1-3-3V20H52v3A3,3,0,0,1,49,26Z"/><path class="cls-1" d="M46,22H44a1,1,0,0,0,0,2h2a1,1,0,0,0,0-2Z"/></g></g></svg>