<svg xmlns="http://www.w3.org/2000/svg" viewBox="0 0 53.92 47"><defs><style>.cls-1{fill:#424242;}</style></defs><title>Ресурс 63</title><g id="Слой_2" data-name="Слой 2"><g id="icons"><path class="cls-1" d="M53.92,21.19a7.34,7.34,0,0,0-7.34-7.34,5.49,5.49,0,0,0-.58,0V5a5,5,0,0,0-5-5H13.08A5.11,5.11,0,0,0,8,5v8.88c-.22,0-.43,0-.65,0A7.33,7.33,0,0,0,3,27.1V39a5,5,0,0,0,5,5v2a1,1,0,0,0,2,0V44a5,5,0,0,0,3.31-1.28A1,1,0,0,0,14,43H40a1,1,0,0,0,.69-.28A5,5,0,0,0,44,44v2a1,1,0,0,0,2,0V44a5,5,0,0,0,5-5V27A7.33,7.33,0,0,0,53.92,21.19ZM10,5a3.08,3.08,0,0,1,3.08-3H41a3,3,0,0,1,3,3v9a1.13,1.13,0,0,0,.06.32A8.14,8.14,0,0,0,39,22v2a4.92,4.92,0,0,0-3-1H18a4.92,4.92,0,0,0-3,1V21a7.2,7.2,0,0,0-5-6.7Zm5,34V32a4.92,4.92,0,0,0,3,1H36a4.92,4.92,0,0,0,3-1v7a4.94,4.94,0,0,0,.42,2H14.58A4.94,4.94,0,0,0,15,39Zm0-11a3,3,0,0,1,3-3H36a3,3,0,0,1,0,6H18A3,3,0,0,1,15,28ZM10,42H8a3,3,0,0,1-3-3V28.15a7.28,7.28,0,0,0,2.35.39,1,1,0,1,0,0-2,5.35,5.35,0,1,1,0-10.69A5.43,5.43,0,0,1,13,21V39A3,3,0,0,1,10,42Zm39-3a3,3,0,0,1-3,3H44a3,3,0,0,1-3-3V22c0-3.34,2.55-6.15,5.58-6.15a5.35,5.35,0,0,1,0,10.69,1,1,0,0,0,0,2A7.2,7.2,0,0,0,49,28.12Z"/></g></g></svg>