<svg xmlns="http://www.w3.org/2000/svg" viewBox="0 0 54 48"><defs><style>.cls-1{fill:#424242;}</style></defs><title>Ресурс 76</title><g id="Слой_2" data-name="Слой 2"><g id="icons"><path class="cls-1" d="M45,46H1a1,1,0,0,0,0,2H45a1,1,0,0,0,0-2Z"/><path class="cls-1" d="M36.86,20c-.54.07-13.32,1.92-21.58,10.52a1,1,0,0,0-.28.69V34a1,1,0,0,0,1,1H28a1,1,0,0,0,1-1V32.75A2,2,0,0,1,30.5,32h3.4c.63,0,1.1.48,1.1.72V34a1,1,0,0,0,1,1h6.25a1,1,0,0,0,.83-.44,1,1,0,0,0,.1-.93l-5.25-13A1,1,0,0,0,36.86,20ZM37,33v-.28A3,3,0,0,0,33.9,30H30.5c-1.58,0-3.5,1.21-3.5,2.72V33H17V31.63c6.66-6.71,16.57-9,19.37-9.51L40.77,33Z"/><path class="cls-1" d="M54,10V9a3,3,0,0,0-3-3H47c-.61,0-1-.33-1-.5a2.61,2.61,0,0,1,1.23-1.67l3.28-2a1,1,0,0,0-1-1.72l-3.29,2A4.49,4.49,0,0,0,44,5.5,2.79,2.79,0,0,0,47,8h4a1,1,0,0,1,1,1v1a3.34,3.34,0,0,1-1.21,2.33l-3.13,2.2-.25-.63a1,1,0,0,0-1.13-.61L41,14.35a1,1,0,0,0-.41.19C4.85,20,.2,41.88,0,42.81A1,1,0,0,0,1,44H43.31a1,1,0,0,0,1-.74,10.56,10.56,0,0,1,8.82-8,1,1,0,0,0,.91-1V31.13a1,1,0,0,0-.2-.6c-.07-.09-4.71-6.2-8.17-10.83l2.57-1.38a1,1,0,0,0,.46-1.24l-.25-.63L51.94,14A5.3,5.3,0,0,0,54,10ZM52,33.47A12.63,12.63,0,0,0,42.56,42H2.32c1.51-4.57,8.93-20.92,38.49-25.48,2.14,3,9.8,13.12,11.19,15ZM44.42,18.08,42.9,16l3-.6L46.47,17Z"/></g></g></svg>