<svg xmlns="http://www.w3.org/2000/svg" viewBox="0 0 54 53"><defs><style>.cls-1{fill:#424242;}</style></defs><title>Ресурс 1</title><g id="Слой_2" data-name="Слой 2"><g id="icons"><path class="cls-1" d="M49,7H36.5a2.1,2.1,0,0,1-1.37-1.23L33.71,2.44A4.32,4.32,0,0,0,30,0H23a4.32,4.32,0,0,0-3.71,2.44L17.87,5.77A2.1,2.1,0,0,1,16.5,7H5a5,5,0,0,0-5,5V44a5,5,0,0,0,5,5H49a5,5,0,0,0,5-5V12A5,5,0,0,0,49,7ZM19.71,6.56l1.42-3.33A2.33,2.33,0,0,1,23,2h7a2.33,2.33,0,0,1,1.87,1.23l1.42,3.33c.07.15.15.3.23.44h-14C19.56,6.86,19.64,6.71,19.71,6.56ZM52,44a3,3,0,0,1-3,3H5a3,3,0,0,1-3-3V12A3,3,0,0,1,5,9H49a3,3,0,0,1,3,3Z"/><path class="cls-1" d="M14,51H8a1,1,0,0,0,0,2h6a1,1,0,0,0,0-2Z"/><path class="cls-1" d="M46,51H40a1,1,0,0,0,0,2h6a1,1,0,0,0,0-2Z"/><path class="cls-1" d="M28,20a1,1,0,0,0-2,0v7H19a1,1,0,0,0,0,2h7v7a1,1,0,0,0,2,0V29h7a1,1,0,0,0,0-2H28Z"/><path class="cls-1" d="M27,15A13,13,0,1,0,40,28,13,13,0,0,0,27,15Zm0,24A11,11,0,1,1,38,28,11,11,0,0,1,27,39Z"/></g></g></svg>