<svg xmlns="http://www.w3.org/2000/svg" viewBox="0 0 54 54"><defs><style>.cls-1{fill:#424242;}</style></defs><title>Ресурс 40</title><g id="Слой_2" data-name="Слой 2"><g id="icons"><path class="cls-1" d="M53,42a6.38,6.38,0,0,0-3.78,1.15,4.45,4.45,0,0,1-2.73.85,4.5,4.5,0,0,1-2.73-.85A7.4,7.4,0,0,0,42,42.29V5a3,3,0,0,1,3-3h1a3,3,0,0,1,3,3v5a1,1,0,0,0,1,1h3a1,1,0,0,0,0-2H51V5a5,5,0,0,0-5-5H45a5,5,0,0,0-5,5V19H17V5a3,3,0,0,1,3-3h1a3,3,0,0,1,3,3v5a1,1,0,0,0,1,1h3a1,1,0,0,0,0-2H26V5a5,5,0,0,0-5-5H20a5,5,0,0,0-5,5V42.07A7.59,7.59,0,0,0,14,42a6.38,6.38,0,0,0-3.78,1.15A4.44,4.44,0,0,1,7.5,44a4.5,4.5,0,0,1-2.73-.85A6.32,6.32,0,0,0,1,42a1,1,0,0,0,0,2,4.44,4.44,0,0,1,2.72.85A6.38,6.38,0,0,0,7.5,46a6.34,6.34,0,0,0,3.77-1.15A4.45,4.45,0,0,1,14,44a4.44,4.44,0,0,1,2.72.85A6.32,6.32,0,0,0,20.49,46a6.38,6.38,0,0,0,3.78-1.15,4.78,4.78,0,0,1,5.44,0,6.77,6.77,0,0,0,7.55,0,4.81,4.81,0,0,1,5.46,0,6.77,6.77,0,0,0,7.55,0A4.48,4.48,0,0,1,53,44a1,1,0,0,0,0-2ZM40,21V33H17V21ZM36.21,43.15a4.44,4.44,0,0,1-2.72.85,4.5,4.5,0,0,1-2.73-.85,6.75,6.75,0,0,0-7.54,0,4.48,4.48,0,0,1-2.73.85,4.44,4.44,0,0,1-2.72-.85L17,42.7V35H40v7h0A6.38,6.38,0,0,0,36.21,43.15Z"/><path class="cls-1" d="M53,50a6.38,6.38,0,0,0-3.78,1.15,4.45,4.45,0,0,1-2.73.85,4.5,4.5,0,0,1-2.73-.85,6.77,6.77,0,0,0-7.55,0,4.44,4.44,0,0,1-2.72.85,4.5,4.5,0,0,1-2.73-.85,6.75,6.75,0,0,0-7.54,0,4.48,4.48,0,0,1-2.73.85,4.44,4.44,0,0,1-2.72-.85A6.37,6.37,0,0,0,14,50a6.38,6.38,0,0,0-3.78,1.15A4.44,4.44,0,0,1,7.5,52a4.5,4.5,0,0,1-2.73-.85A6.32,6.32,0,0,0,1,50a1,1,0,0,0,0,2,4.44,4.44,0,0,1,2.72.85A6.38,6.38,0,0,0,7.5,54a6.34,6.34,0,0,0,3.77-1.15A4.45,4.45,0,0,1,14,52a4.44,4.44,0,0,1,2.72.85A6.32,6.32,0,0,0,20.49,54a6.38,6.38,0,0,0,3.78-1.15,4.78,4.78,0,0,1,5.44,0,6.77,6.77,0,0,0,7.55,0,4.81,4.81,0,0,1,5.46,0,6.77,6.77,0,0,0,7.55,0A4.48,4.48,0,0,1,53,52a1,1,0,0,0,0-2Z"/></g></g></svg>