<?xml version="1.0" encoding="UTF-8"?><!DOCTYPE svg PUBLIC "-//W3C//DTD SVG 1.1//EN" "http://www.w3.org/Graphics/SVG/1.1/DTD/svg11.dtd"><svg xmlns="http://www.w3.org/2000/svg"><symbol id="icon-arr" viewBox="0 0 29 6">
    <path d="M0 4V2h25V0l4 3-4 3V4H0z"/>
</symbol><symbol id="icon-arrd" viewBox="0 0 129 129">
    <path d="M121.3 34.6c-1.6-1.6-4.2-1.6-5.8 0l-51 51.1-51.1-51.1c-1.6-1.6-4.2-1.6-5.8 0-1.6 1.6-1.6 4.2 0 5.8l53.9 53.9c.8.8 1.8 1.2 2.9 1.2 1 0 2.1-.4 2.9-1.2l53.9-53.9c1.7-1.6 1.7-4.2.1-5.8z"/>
</symbol><symbol id="icon-cancel" viewBox="0 0 64 64">
    <path d="M28.941 31.786L.613 60.114a2.014 2.014 0 1 0 2.848 2.849l28.541-28.541 28.541 28.541c.394.394.909.59 1.424.59a2.014 2.014 0 0 0 1.424-3.439L35.064 31.786 63.41 3.438A2.014 2.014 0 1 0 60.562.589L32.003 29.15 3.441.59A2.015 2.015 0 0 0 .593 3.439l28.348 28.347z"/>
</symbol><symbol id="icon-facebook" viewBox="0 0 10 19">
    <title>
        facebook
    </title>
    <path d="M9.766.157v2.946H8.014c-.64 0-1.071.134-1.295.402-.223.268-.335.67-.335 1.205v2.11h3.27l-.435 3.303H6.384v8.471H2.97v-8.47H.123V6.82H2.97V4.387c0-1.384.387-2.457 1.161-3.22C4.904.404 5.934.023 7.222.023c1.093 0 1.941.045 2.544.134z" fill-rule="evenodd"/>
</symbol><symbol id="icon-iblock-1" viewBox="0 0 54 53.3">
    <style>
        .st0{fill:#424242}
    </style>
    <path class="st0" d="M53 49.3c-1.9 0-2.9.6-3.8 1.1-.8.5-1.4.9-2.7.9-1.3 0-2-.4-2.7-.9-.9-.5-1.9-1.1-3.8-1.1s-2.9.6-3.8 1.1c-.8.5-1.4.9-2.7.9-1.3 0-2-.4-2.7-.9-.9-.5-1.9-1.1-3.8-1.1s-2.9.6-3.8 1.1c-.8.5-1.4.9-2.7.9-1.3 0-2-.4-2.7-.9-.9-.5-1.9-1.1-3.8-1.1s-2.9.6-3.8 1.1c-.8.5-1.4.9-2.7.9s-2-.4-2.7-.9c-.9-.5-1.9-1.1-3.8-1.1-.6 0-1 .4-1 1s.4 1 1 1c1.3 0 2 .4 2.7.9.9.5 1.9 1.1 3.8 1.1s2.9-.6 3.8-1.1c.8-.5 1.4-.9 2.7-.9s2 .4 2.7.9c.9.5 1.9 1.1 3.8 1.1s2.9-.6 3.8-1.1c.8-.5 1.4-.9 2.7-.9 1.3 0 2 .4 2.7.9.9.5 1.9 1.1 3.8 1.1s2.9-.6 3.8-1.1c.8-.5 1.4-.9 2.7-.9 1.3 0 2 .4 2.7.9.9.5 1.9 1.1 3.8 1.1s2.9-.6 3.8-1.1c.8-.5 1.4-.9 2.7-.9.6 0 1-.4 1-1s-.4-1-1-1z"/>
    <path class="st0" d="M1 45.3c1.3 0 2 .4 2.7.9.9.5 1.9 1.1 3.8 1.1s2.9-.6 3.8-1.1c.8-.5 1.4-.9 2.7-.9s2 .4 2.7.9c.9.5 1.9 1.1 3.8 1.1s2.9-.6 3.8-1.1c.8-.5 1.4-.9 2.7-.9 1.3 0 2 .4 2.7.9.9.5 1.9 1.1 3.8 1.1s2.9-.6 3.8-1.1c.8-.5 1.4-.9 2.7-.9 1.3 0 2 .4 2.7.9.9.5 1.9 1.1 3.8 1.1s2.9-.6 3.8-1.1c.8-.5 1.4-.9 2.7-.9.6 0 1-.4 1-1s-.4-1-1-1c-1.9 0-2.9.6-3.8 1.1-.8.5-1.4.9-2.7.9-1.3 0-2-.4-2.7-.9-.7-.4-1.5-.9-2.8-1.1v-4.1h3c1.7 0 3-1.3 3-3v-6c0-1.7-1.3-3-3-3v-12l3.4 2.7c.2.1.4.2.6.2.3 0 .6-.1.8-.4.3-.4.3-1.1-.1-1.4L29.2.7c-1.2-1-3.1-1-4.4 0L5.4 16.5c-.4.3-.5 1-.1 1.4.3.4 1 .5 1.4.1l3.4-2.7v12c-1.7 0-3 1.3-3 3v6c0 1.7 1.3 3 3 3h3v4.1c-1.3.2-2.1.6-2.8 1.1-.8.5-1.4.9-2.7.9s-2-.4-2.7-.9C4 44 3 43.4 1.1 43.4c-.6 0-1 .4-1 1s.3.9.9.9zm10.9-31.5L26.1 2.3c.5-.4 1.4-.4 1.9 0l14.2 11.5c-.1.1-.1.3-.1.5v13h-8v-10c0-1.7-1.3-3-3-3h-8c-1.7 0-3 1.3-3 3v10h-8v-13c-.1-.2-.2-.4-.2-.5zM22 27.3v-10c0-.6.4-1 1-1h8c.6 0 1 .4 1 1v10H22zm-13 9v-6c0-.6.4-1 1-1h34c.6 0 1 .4 1 1v6c0 .6-.4 1-1 1H10c-.6 0-1-.5-1-1zm30 3v4.1c-1.3.2-2.1.6-2.8 1.1-.8.5-1.4.9-2.7.9-1.3 0-2-.4-2.7-.9-.9-.5-1.9-1.1-3.8-1.1s-2.9.6-3.8 1.1c-.8.5-1.4.9-2.7.9-1.3 0-2-.4-2.7-.9-.7-.4-1.5-.9-2.8-1.1v-4.1h24z"/>
    <path class="st0" d="M15 36.3c.6 0 1-.4 1-1v-4c0-.6-.4-1-1-1s-1 .4-1 1v4c0 .5.4 1 1 1z"/>
    <path class="st0" d="M23 36.3c.6 0 1-.4 1-1v-4c0-.6-.4-1-1-1s-1 .4-1 1v4c0 .5.4 1 1 1z"/>
    <path class="st0" d="M31 36.3c.6 0 1-.4 1-1v-4c0-.6-.4-1-1-1s-1 .4-1 1v4c0 .5.4 1 1 1z"/>
    <path class="st0" d="M39 36.3c.6 0 1-.4 1-1v-4c0-.6-.4-1-1-1s-1 .4-1 1v4c0 .5.4 1 1 1z"/>
</symbol></svg>