<svg xmlns="http://www.w3.org/2000/svg" viewBox="0 0 54 54"><defs><style>.cls-1{fill:#424242;}</style></defs><title>Ресурс 88</title><g id="Слой_2" data-name="Слой 2"><g id="icons"><path class="cls-1" d="M51,9H32.72l3.15-5.5a1,1,0,0,0-1.74-1L30.42,9H24.49L17.79.39a1,1,0,0,0-1.4-.18,1,1,0,0,0-.18,1.41L22,9H3a3,3,0,0,0-3,3V45a3,3,0,0,0,3,3H26v4H18a1,1,0,0,0,0,2H36a1,1,0,0,0,0-2H28V48H51a3,3,0,0,0,3-3V12A3,3,0,0,0,51,9ZM3,11H51a1,1,0,0,1,1,1V38H2V12A1,1,0,0,1,3,11ZM51,46H3a1,1,0,0,1-1-1V40H52v5A1,1,0,0,1,51,46Z"/><path class="cls-1" d="M46,42H44a1,1,0,0,0,0,2h2a1,1,0,0,0,0-2Z"/></g></g></svg>